<?xml version="1.0" encoding="us-ascii" standalone="no"?><svg xmlns="http://www.w3.org/2000/svg" xmlns:xlink="http://www.w3.org/1999/xlink" contentStyleType="text/css" height="565px" preserveAspectRatio="none" style="width:2581px;height:565px;background:#FFFFFF;" version="1.1" viewBox="0 0 2581 565" width="2581px" zoomAndPan="magnify"><defs/><g><!--class Camera--><g id="elem_Camera"><rect codeLine="1" fill="#F1F1F1" height="163.418" id="Camera" rx="2.5" ry="2.5" style="stroke:#181818;stroke-width:0.5;" width="324" x="1710" y="81.2"/><ellipse cx="1841.25" cy="97.2" fill="#ADD1B2" rx="11" ry="11" style="stroke:#181818;stroke-width:1.0;"/><path d="M1843.7231,103.3431 Q1843.1421,103.6419 1842.5029,103.7913 Q1841.8638,103.9407 1841.1582,103.9407 Q1838.6514,103.9407 1837.3315,102.2889 Q1836.0117,100.637 1836.0117,97.5159 Q1836.0117,94.3865 1837.3315,92.7347 Q1838.6514,91.0828 1841.1582,91.0828 Q1841.8638,91.0828 1842.5112,91.2322 Q1843.1587,91.3816 1843.7231,91.6805 L1843.7231,94.4031 Q1843.0923,93.8221 1842.4988,93.5523 Q1841.9053,93.2825 1841.2744,93.2825 Q1839.9297,93.2825 1839.2449,94.3492 Q1838.5601,95.4158 1838.5601,97.5159 Q1838.5601,99.6077 1839.2449,100.6744 Q1839.9297,101.741 1841.2744,101.741 Q1841.9053,101.741 1842.4988,101.4712 Q1843.0923,101.2015 1843.7231,100.6204 Z " fill="#000000"/><text fill="#000000" font-family="sans-serif" font-size="14" lengthAdjust="spacing" textLength="53" x="1861.75" y="102.491">Camera</text><line style="stroke:#181818;stroke-width:0.5;" x1="1711" x2="2033" y1="113.2" y2="113.2"/><ellipse cx="1721" cy="126.9441" fill="none" rx="3" ry="3" style="stroke:#038048;stroke-width:1.0;"/><text fill="#000000" font-family="sans-serif" font-size="14" lengthAdjust="spacing" textLength="162" x="1730" y="130.7352">AspectRatio : float &#171;set&#187;</text><ellipse cx="1721" cy="143.4324" fill="none" rx="3" ry="3" style="stroke:#038048;stroke-width:1.0;"/><text fill="#000000" font-family="sans-serif" font-size="14" lengthAdjust="spacing" textLength="154" x="1730" y="147.2234">Pitch : float &#171;get&#187; &#171;set&#187;</text><ellipse cx="1721" cy="159.9207" fill="none" rx="3" ry="3" style="stroke:#038048;stroke-width:1.0;"/><text fill="#000000" font-family="sans-serif" font-size="14" lengthAdjust="spacing" textLength="149" x="1730" y="163.7117">Yaw : float &#171;get&#187; &#171;set&#187;</text><ellipse cx="1721" cy="176.409" fill="none" rx="3" ry="3" style="stroke:#038048;stroke-width:1.0;"/><text fill="#000000" font-family="sans-serif" font-size="14" lengthAdjust="spacing" textLength="145" x="1730" y="180.2">Fov : float &#171;get&#187; &#171;set&#187;</text><line style="stroke:#181818;stroke-width:0.5;" x1="1711" x2="2033" y1="187.1531" y2="187.1531"/><ellipse cx="1721" cy="200.8973" fill="#84BE84" rx="3" ry="3" style="stroke:#038048;stroke-width:1.0;"/><text fill="#000000" font-family="sans-serif" font-size="14" lengthAdjust="spacing" textLength="298" x="1730" y="204.6883">Camera(position:Vector3, aspectRatio:float)</text><ellipse cx="1721" cy="217.3855" fill="#84BE84" rx="3" ry="3" style="stroke:#038048;stroke-width:1.0;"/><text fill="#000000" font-family="sans-serif" font-size="14" lengthAdjust="spacing" textLength="174" x="1730" y="221.1766">GetViewMatrix() : Matrix4</text><ellipse cx="1721" cy="233.8738" fill="#84BE84" rx="3" ry="3" style="stroke:#038048;stroke-width:1.0;"/><text fill="#000000" font-family="sans-serif" font-size="14" lengthAdjust="spacing" textLength="211" x="1730" y="237.6648">GetProjectionMatrix() : Matrix4</text></g><!--class Vector3--><g id="elem_Vector3"><rect fill="#F1F1F1" height="48" id="Vector3" rx="2.5" ry="2.5" style="stroke:#181818;stroke-width:0.5;" width="85" x="1829.5" y="444.77"/><ellipse cx="1844.5" cy="460.77" fill="#ADD1B2" rx="11" ry="11" style="stroke:#181818;stroke-width:1.0;"/><path d="M1846.9731,466.9131 Q1846.3921,467.2119 1845.7529,467.3613 Q1845.1138,467.5107 1844.4082,467.5107 Q1841.9014,467.5107 1840.5815,465.8589 Q1839.2617,464.207 1839.2617,461.0859 Q1839.2617,457.9565 1840.5815,456.3047 Q1841.9014,454.6528 1844.4082,454.6528 Q1845.1138,454.6528 1845.7612,454.8022 Q1846.4087,454.9516 1846.9731,455.2505 L1846.9731,457.9731 Q1846.3423,457.3921 1845.7488,457.1223 Q1845.1553,456.8525 1844.5244,456.8525 Q1843.1797,456.8525 1842.4949,457.9192 Q1841.8101,458.9858 1841.8101,461.0859 Q1841.8101,463.1777 1842.4949,464.2444 Q1843.1797,465.311 1844.5244,465.311 Q1845.1553,465.311 1845.7488,465.0412 Q1846.3423,464.7715 1846.9731,464.1904 Z " fill="#000000"/><text fill="#000000" font-family="sans-serif" font-size="14" lengthAdjust="spacing" textLength="53" x="1858.5" y="466.061">Vector3</text><line style="stroke:#181818;stroke-width:0.5;" x1="1830.5" x2="1913.5" y1="476.77" y2="476.77"/><line style="stroke:#181818;stroke-width:0.5;" x1="1830.5" x2="1913.5" y1="484.77" y2="484.77"/></g><!--class Utilitario--><g id="elem_Utilitario"><rect codeLine="1" fill="#F1F1F1" height="113.9531" id="Utilitario" rx="2.5" ry="2.5" style="stroke:#181818;stroke-width:0.5;" width="514" x="7" y="105.93"/><ellipse cx="230.25" cy="121.93" fill="#A9DCDF" rx="11" ry="11" style="stroke:#181818;stroke-width:1.0;"/><path d="M230.1133,117.2781 L228.9595,122.3499 L231.2754,122.3499 Z M228.6191,115.0369 L231.6157,115.0369 L234.9609,127.43 L232.5122,127.43 L231.7485,124.367 L228.4697,124.367 L227.7227,127.43 L225.2739,127.43 Z " fill="#000000"/><text fill="#000000" font-family="sans-serif" font-size="14" font-style="italic" lengthAdjust="spacing" textLength="59" x="250.75" y="127.221">Utilitario</text><line style="stroke:#181818;stroke-width:0.5;" x1="8" x2="520" y1="137.93" y2="137.93"/><line style="stroke:#181818;stroke-width:0.5;" x1="8" x2="520" y1="145.93" y2="145.93"/><ellipse cx="18" cy="159.6741" fill="#84BE84" rx="3" ry="3" style="stroke:#038048;stroke-width:1.0;"/><text fill="#000000" font-family="sans-serif" font-size="14" lengthAdjust="spacing" text-decoration="underline" textLength="211" x="27" y="163.4652">CharProximo(atual:char) : char</text><ellipse cx="18" cy="176.1624" fill="#84BE84" rx="3" ry="3" style="stroke:#038048;stroke-width:1.0;"/><text fill="#000000" font-family="sans-serif" font-size="14" lengthAdjust="spacing" text-decoration="underline" textLength="428" x="27" y="179.9534">TeclaUpperConsole(msg:string, Control:bool, Shift:bool) : char</text><ellipse cx="18" cy="192.6507" fill="#84BE84" rx="3" ry="3" style="stroke:#038048;stroke-width:1.0;"/><text fill="#000000" font-family="sans-serif" font-size="14" lengthAdjust="spacing" text-decoration="underline" textLength="488" x="27" y="196.4417">NDC_TelaSRU(largura:int, altura:int, mousePosition:Ponto4D) : Ponto4D</text><ellipse cx="18" cy="209.139" fill="#84BE84" rx="3" ry="3" style="stroke:#038048;stroke-width:1.0;"/><text fill="#000000" font-family="sans-serif" font-size="14" lengthAdjust="spacing" text-decoration="underline" textLength="145" x="27" y="212.93">AjudaTeclado() : void</text></g><!--class Transformacao4D--><g id="elem_Transformacao4D"><rect codeLine="1" fill="#F1F1F1" height="311.8125" id="Transformacao4D" rx="2.5" ry="2.5" style="stroke:#181818;stroke-width:0.5;" width="584" x="556" y="7"/><ellipse cx="782.25" cy="23" fill="#ADD1B2" rx="11" ry="11" style="stroke:#181818;stroke-width:1.0;"/><path d="M784.7231,29.1431 Q784.1421,29.4419 783.5029,29.5913 Q782.8638,29.7407 782.1582,29.7407 Q779.6514,29.7407 778.3315,28.0889 Q777.0117,26.437 777.0117,23.3159 Q777.0117,20.1865 778.3315,18.5347 Q779.6514,16.8828 782.1582,16.8828 Q782.8638,16.8828 783.5112,17.0322 Q784.1587,17.1816 784.7231,17.4805 L784.7231,20.2031 Q784.0923,19.6221 783.4988,19.3523 Q782.9053,19.0825 782.2744,19.0825 Q780.9297,19.0825 780.2449,20.1492 Q779.5601,21.2158 779.5601,23.3159 Q779.5601,25.4077 780.2449,26.4744 Q780.9297,27.541 782.2744,27.541 Q782.9053,27.541 783.4988,27.2712 Q784.0923,27.0015 784.7231,26.4204 Z " fill="#000000"/><text fill="#000000" font-family="sans-serif" font-size="14" lengthAdjust="spacing" textLength="123" x="802.75" y="28.291">Transformacao4D</text><line style="stroke:#181818;stroke-width:0.5;" x1="557" x2="1139" y1="39" y2="39"/><ellipse cx="567" cy="52.7441" fill="none" rx="3" ry="3" style="stroke:#038048;stroke-width:1.0;"/><text fill="#000000" font-family="sans-serif" font-size="14" lengthAdjust="spacing" text-decoration="underline" textLength="558" x="576" y="56.5352">&#171;readonly&#187; DEG_TO_RAD : double = 0.017453292519943295769236907684886</text><line style="stroke:#181818;stroke-width:0.5;" x1="557" x2="1139" y1="63.4883" y2="63.4883"/><ellipse cx="567" cy="77.2324" fill="#84BE84" rx="3" ry="3" style="stroke:#038048;stroke-width:1.0;"/><text fill="#000000" font-family="sans-serif" font-size="14" lengthAdjust="spacing" textLength="133" x="576" y="81.0234">Transformacao4D()</text><ellipse cx="567" cy="93.7207" fill="#84BE84" rx="3" ry="3" style="stroke:#038048;stroke-width:1.0;"/><text fill="#000000" font-family="sans-serif" font-size="14" lengthAdjust="spacing" textLength="212" x="576" y="97.5117">ObterDadosOpenTK() : Matrix4</text><ellipse cx="567" cy="110.209" fill="#84BE84" rx="3" ry="3" style="stroke:#038048;stroke-width:1.0;"/><text fill="#000000" font-family="sans-serif" font-size="14" lengthAdjust="spacing" textLength="177" x="576" y="114">AtribuirIdentidade() : void</text><ellipse cx="567" cy="126.6973" fill="#84BE84" rx="3" ry="3" style="stroke:#038048;stroke-width:1.0;"/><text fill="#000000" font-family="sans-serif" font-size="14" lengthAdjust="spacing" textLength="390" x="576" y="130.4883">AtribuirTranslacao(tx:double, ty:double, tz:double) : void</text><ellipse cx="567" cy="143.1855" fill="#84BE84" rx="3" ry="3" style="stroke:#038048;stroke-width:1.0;"/><text fill="#000000" font-family="sans-serif" font-size="14" lengthAdjust="spacing" textLength="365" x="576" y="146.9766">AtribuirEscala(sX:double, sY:double, sZ:double) : void</text><ellipse cx="567" cy="159.6738" fill="#84BE84" rx="3" ry="3" style="stroke:#038048;stroke-width:1.0;"/><text fill="#000000" font-family="sans-serif" font-size="14" lengthAdjust="spacing" textLength="271" x="576" y="163.4648">AtribuirRotacaoX(radians:double) : void</text><ellipse cx="567" cy="176.1621" fill="#84BE84" rx="3" ry="3" style="stroke:#038048;stroke-width:1.0;"/><text fill="#000000" font-family="sans-serif" font-size="14" lengthAdjust="spacing" textLength="271" x="576" y="179.9531">AtribuirRotacaoY(radians:double) : void</text><ellipse cx="567" cy="192.6504" fill="#84BE84" rx="3" ry="3" style="stroke:#038048;stroke-width:1.0;"/><text fill="#000000" font-family="sans-serif" font-size="14" lengthAdjust="spacing" textLength="270" x="576" y="196.4414">AtribuirRotacaoZ(radians:double) : void</text><ellipse cx="567" cy="209.1387" fill="#84BE84" rx="3" ry="3" style="stroke:#038048;stroke-width:1.0;"/><text fill="#000000" font-family="sans-serif" font-size="14" lengthAdjust="spacing" textLength="279" x="576" y="212.9297">MultiplicarPonto(pto:Ponto4D) : Ponto4D</text><ellipse cx="567" cy="225.627" fill="#84BE84" rx="3" ry="3" style="stroke:#038048;stroke-width:1.0;"/><text fill="#000000" font-family="sans-serif" font-size="14" lengthAdjust="spacing" textLength="392" x="576" y="229.418">MultiplicarMatriz(t:Transformacao4D) : Transformacao4D</text><ellipse cx="567" cy="242.1152" fill="#84BE84" rx="3" ry="3" style="stroke:#038048;stroke-width:1.0;"/><text fill="#000000" font-family="sans-serif" font-size="14" lengthAdjust="spacing" textLength="234" x="576" y="245.9063">ObterElemento(index:int) : double</text><ellipse cx="567" cy="258.6035" fill="#84BE84" rx="3" ry="3" style="stroke:#038048;stroke-width:1.0;"/><text fill="#000000" font-family="sans-serif" font-size="14" lengthAdjust="spacing" textLength="325" x="576" y="262.3945">AtribuirElemento(index:int, value:double) : void</text><ellipse cx="567" cy="275.0918" fill="#84BE84" rx="3" ry="3" style="stroke:#038048;stroke-width:1.0;"/><text fill="#000000" font-family="sans-serif" font-size="14" lengthAdjust="spacing" textLength="162" x="576" y="278.8828">ObterDados() : double[]</text><ellipse cx="567" cy="291.5801" fill="#84BE84" rx="3" ry="3" style="stroke:#038048;stroke-width:1.0;"/><text fill="#000000" font-family="sans-serif" font-size="14" lengthAdjust="spacing" textLength="239" x="576" y="295.3711">AtribuirDados(data:double[]) : void</text><ellipse cx="567" cy="308.0684" fill="#84BE84" rx="3" ry="3" style="stroke:#038048;stroke-width:1.0;"/><text fill="#000000" font-family="sans-serif" font-size="14" lengthAdjust="spacing" textLength="196" x="576" y="311.8594">&#171;override&#187; ToString() : string</text></g><!--class BBox--><g id="elem_BBox"><rect codeLine="1" fill="#F1F1F1" height="245.8594" id="BBox" rx="2.5" ry="2.5" style="stroke:#181818;stroke-width:0.5;" width="505" x="2069.5" y="39.98"/><ellipse cx="2300.75" cy="55.98" fill="#ADD1B2" rx="11" ry="11" style="stroke:#181818;stroke-width:1.0;"/><path d="M2303.2231,62.1231 Q2302.6421,62.4219 2302.0029,62.5713 Q2301.3638,62.7207 2300.6582,62.7207 Q2298.1514,62.7207 2296.8315,61.0689 Q2295.5117,59.417 2295.5117,56.2959 Q2295.5117,53.1665 2296.8315,51.5147 Q2298.1514,49.8628 2300.6582,49.8628 Q2301.3638,49.8628 2302.0112,50.0122 Q2302.6587,50.1616 2303.2231,50.4605 L2303.2231,53.1831 Q2302.5923,52.6021 2301.9988,52.3323 Q2301.4053,52.0625 2300.7744,52.0625 Q2299.4297,52.0625 2298.7449,53.1292 Q2298.0601,54.1958 2298.0601,56.2959 Q2298.0601,58.3877 2298.7449,59.4544 Q2299.4297,60.521 2300.7744,60.521 Q2301.4053,60.521 2301.9988,60.2512 Q2302.5923,59.9815 2303.2231,59.4004 Z " fill="#000000"/><text fill="#000000" font-family="sans-serif" font-size="14" lengthAdjust="spacing" textLength="34" x="2321.25" y="61.271">BBox</text><line style="stroke:#181818;stroke-width:0.5;" x1="2070.5" x2="2573.5" y1="71.98" y2="71.98"/><ellipse cx="2080.5" cy="85.7241" fill="none" rx="3" ry="3" style="stroke:#038048;stroke-width:1.0;"/><text fill="#000000" font-family="sans-serif" font-size="14" lengthAdjust="spacing" textLength="192" x="2089.5" y="89.5152">ObterMenorX : double &#171;get&#187;</text><ellipse cx="2080.5" cy="102.2124" fill="none" rx="3" ry="3" style="stroke:#038048;stroke-width:1.0;"/><text fill="#000000" font-family="sans-serif" font-size="14" lengthAdjust="spacing" textLength="192" x="2089.5" y="106.0034">ObterMenorY : double &#171;get&#187;</text><ellipse cx="2080.5" cy="118.7007" fill="none" rx="3" ry="3" style="stroke:#038048;stroke-width:1.0;"/><text fill="#000000" font-family="sans-serif" font-size="14" lengthAdjust="spacing" textLength="191" x="2089.5" y="122.4917">ObterMenorZ : double &#171;get&#187;</text><ellipse cx="2080.5" cy="135.189" fill="none" rx="3" ry="3" style="stroke:#038048;stroke-width:1.0;"/><text fill="#000000" font-family="sans-serif" font-size="14" lengthAdjust="spacing" textLength="187" x="2089.5" y="138.98">ObterMaiorX : double &#171;get&#187;</text><ellipse cx="2080.5" cy="151.6773" fill="none" rx="3" ry="3" style="stroke:#038048;stroke-width:1.0;"/><text fill="#000000" font-family="sans-serif" font-size="14" lengthAdjust="spacing" textLength="187" x="2089.5" y="155.4683">ObterMaiorY : double &#171;get&#187;</text><ellipse cx="2080.5" cy="168.1655" fill="none" rx="3" ry="3" style="stroke:#038048;stroke-width:1.0;"/><text fill="#000000" font-family="sans-serif" font-size="14" lengthAdjust="spacing" textLength="186" x="2089.5" y="171.9566">ObterMaiorZ : double &#171;get&#187;</text><line style="stroke:#181818;stroke-width:0.5;" x1="2070.5" x2="2573.5" y1="178.9097" y2="178.9097"/><ellipse cx="2080.5" cy="192.6538" fill="#84BE84" rx="3" ry="3" style="stroke:#038048;stroke-width:1.0;"/><text fill="#000000" font-family="sans-serif" font-size="14" lengthAdjust="spacing" textLength="44" x="2089.5" y="196.4448">BBox()</text><ellipse cx="2080.5" cy="209.1421" fill="#84BE84" rx="3" ry="3" style="stroke:#038048;stroke-width:1.0;"/><text fill="#000000" font-family="sans-serif" font-size="14" lengthAdjust="spacing" textLength="479" x="2089.5" y="212.9331">Atualizar(matriz:Transformacao4D, pontosLista:List&lt;Ponto4D&gt;) : void</text><ellipse cx="2080.5" cy="225.6304" fill="#84BE84" rx="3" ry="3" style="stroke:#038048;stroke-width:1.0;"/><text fill="#000000" font-family="sans-serif" font-size="14" lengthAdjust="spacing" textLength="164" x="2089.5" y="229.4214">ProcessarCentro() : void</text><ellipse cx="2080.5" cy="242.1187" fill="#84BE84" rx="3" ry="3" style="stroke:#038048;stroke-width:1.0;"/><text fill="#000000" font-family="sans-serif" font-size="14" lengthAdjust="spacing" textLength="186" x="2089.5" y="245.9097">Dentro(pto:Ponto4D) : bool</text><ellipse cx="2080.5" cy="258.607" fill="#84BE84" rx="3" ry="3" style="stroke:#038048;stroke-width:1.0;"/><text fill="#000000" font-family="sans-serif" font-size="14" lengthAdjust="spacing" textLength="325" x="2089.5" y="262.398">Desenhar(matrizGrafo:Transformacao4D) : void</text><ellipse cx="2080.5" cy="275.0952" fill="#84BE84" rx="3" ry="3" style="stroke:#038048;stroke-width:1.0;"/><text fill="#000000" font-family="sans-serif" font-size="14" lengthAdjust="spacing" textLength="196" x="2089.5" y="278.8863">&#171;override&#187; ToString() : string</text></g><!--class Ponto4D--><g id="elem_Ponto4D"><rect codeLine="1" fill="#F1F1F1" height="163.418" id="Ponto4D" rx="2.5" ry="2.5" style="stroke:#181818;stroke-width:0.5;" width="362" x="2141" y="387.06"/><ellipse cx="2288.25" cy="403.06" fill="#ADD1B2" rx="11" ry="11" style="stroke:#181818;stroke-width:1.0;"/><path d="M2290.7231,409.2031 Q2290.1421,409.5019 2289.5029,409.6513 Q2288.8638,409.8007 2288.1582,409.8007 Q2285.6514,409.8007 2284.3315,408.1489 Q2283.0117,406.497 2283.0117,403.3759 Q2283.0117,400.2465 2284.3315,398.5947 Q2285.6514,396.9428 2288.1582,396.9428 Q2288.8638,396.9428 2289.5112,397.0922 Q2290.1587,397.2416 2290.7231,397.5405 L2290.7231,400.2631 Q2290.0923,399.6821 2289.4988,399.4123 Q2288.9053,399.1425 2288.2744,399.1425 Q2286.9297,399.1425 2286.2449,400.2092 Q2285.5601,401.2758 2285.5601,403.3759 Q2285.5601,405.4677 2286.2449,406.5344 Q2286.9297,407.601 2288.2744,407.601 Q2288.9053,407.601 2289.4988,407.3312 Q2290.0923,407.0615 2290.7231,406.4804 Z " fill="#000000"/><text fill="#000000" font-family="sans-serif" font-size="14" lengthAdjust="spacing" textLength="59" x="2308.75" y="408.351">Ponto4D</text><line style="stroke:#181818;stroke-width:0.5;" x1="2142" x2="2502" y1="419.06" y2="419.06"/><ellipse cx="2152" cy="432.8041" fill="none" rx="3" ry="3" style="stroke:#038048;stroke-width:1.0;"/><text fill="#000000" font-family="sans-serif" font-size="14" lengthAdjust="spacing" textLength="147" x="2161" y="436.5952">X : double &#171;get&#187; &#171;set&#187;</text><ellipse cx="2152" cy="449.2924" fill="none" rx="3" ry="3" style="stroke:#038048;stroke-width:1.0;"/><text fill="#000000" font-family="sans-serif" font-size="14" lengthAdjust="spacing" textLength="147" x="2161" y="453.0834">Y : double &#171;get&#187; &#171;set&#187;</text><ellipse cx="2152" cy="465.7807" fill="none" rx="3" ry="3" style="stroke:#038048;stroke-width:1.0;"/><text fill="#000000" font-family="sans-serif" font-size="14" lengthAdjust="spacing" textLength="146" x="2161" y="469.5717">Z : double &#171;get&#187; &#171;set&#187;</text><ellipse cx="2152" cy="482.269" fill="none" rx="3" ry="3" style="stroke:#038048;stroke-width:1.0;"/><text fill="#000000" font-family="sans-serif" font-size="14" lengthAdjust="spacing" textLength="112" x="2161" y="486.06">W : double &#171;get&#187;</text><line style="stroke:#181818;stroke-width:0.5;" x1="2142" x2="2502" y1="493.0131" y2="493.0131"/><ellipse cx="2152" cy="506.7573" fill="#84BE84" rx="3" ry="3" style="stroke:#038048;stroke-width:1.0;"/><text fill="#000000" font-family="sans-serif" font-size="14" lengthAdjust="spacing" textLength="336" x="2161" y="510.5483">Ponto4D(x:double, y:double, z:double, w:double)</text><ellipse cx="2152" cy="523.2455" fill="#84BE84" rx="3" ry="3" style="stroke:#038048;stroke-width:1.0;"/><text fill="#000000" font-family="sans-serif" font-size="14" lengthAdjust="spacing" textLength="155" x="2161" y="527.0366">Ponto4D(pto:Ponto4D)</text><ellipse cx="2152" cy="539.7338" fill="#84BE84" rx="3" ry="3" style="stroke:#038048;stroke-width:1.0;"/><text fill="#000000" font-family="sans-serif" font-size="14" lengthAdjust="spacing" textLength="196" x="2161" y="543.5248">&#171;override&#187; ToString() : string</text></g><!--class Matematica--><g id="elem_Matematica"><rect codeLine="1" fill="#F1F1F1" height="179.9063" id="Matematica" rx="2.5" ry="2.5" style="stroke:#181818;stroke-width:0.5;" width="499" x="1175.5" y="72.95"/><ellipse cx="1381.75" cy="88.95" fill="#A9DCDF" rx="11" ry="11" style="stroke:#181818;stroke-width:1.0;"/><path d="M1381.6133,84.2981 L1380.4595,89.3699 L1382.7754,89.3699 Z M1380.1191,82.0569 L1383.1157,82.0569 L1386.4609,94.45 L1384.0122,94.45 L1383.2485,91.387 L1379.9697,91.387 L1379.2227,94.45 L1376.7739,94.45 Z " fill="#000000"/><text fill="#000000" font-family="sans-serif" font-size="14" font-style="italic" lengthAdjust="spacing" textLength="78" x="1402.25" y="94.241">Matematica</text><line style="stroke:#181818;stroke-width:0.5;" x1="1176.5" x2="1673.5" y1="104.95" y2="104.95"/><line style="stroke:#181818;stroke-width:0.5;" x1="1176.5" x2="1673.5" y1="112.95" y2="112.95"/><ellipse cx="1186.5" cy="126.6941" fill="#84BE84" rx="3" ry="3" style="stroke:#038048;stroke-width:1.0;"/><text fill="#000000" font-family="sans-serif" font-size="14" lengthAdjust="spacing" text-decoration="underline" textLength="384" x="1195.5" y="130.4852">GerarPtosCirculo(angulo:double, raio:double) : Ponto4D</text><ellipse cx="1186.5" cy="143.1824" fill="#84BE84" rx="3" ry="3" style="stroke:#038048;stroke-width:1.0;"/><text fill="#000000" font-family="sans-serif" font-size="14" lengthAdjust="spacing" text-decoration="underline" textLength="329" x="1195.5" y="146.9734">GerarPtosCirculoSimetrico(raio:double) : double</text><ellipse cx="1186.5" cy="159.6707" fill="#84BE84" rx="3" ry="3" style="stroke:#038048;stroke-width:1.0;"/><text fill="#000000" font-family="sans-serif" font-size="14" lengthAdjust="spacing" text-decoration="underline" textLength="267" x="1195.5" y="163.4617">Dentro(bBox:BBox, pto:Ponto4D) : bool</text><ellipse cx="1186.5" cy="176.159" fill="#84BE84" rx="3" ry="3" style="stroke:#038048;stroke-width:1.0;"/><text fill="#000000" font-family="sans-serif" font-size="14" lengthAdjust="spacing" text-decoration="underline" textLength="398" x="1195.5" y="179.95">distanciaQuadrado(ptoA:Ponto4D, ptoB:Ponto4D) : double</text><ellipse cx="1186.5" cy="192.6473" fill="#84BE84" rx="3" ry="3" style="stroke:#038048;stroke-width:1.0;"/><text fill="#000000" font-family="sans-serif" font-size="14" lengthAdjust="spacing" text-decoration="underline" textLength="329" x="1195.5" y="196.4383">distancia(ptoA:Ponto4D, ptoB:Ponto4D) : double</text><ellipse cx="1186.5" cy="209.1355" fill="#84BE84" rx="3" ry="3" style="stroke:#038048;stroke-width:1.0;"/><text fill="#000000" font-family="sans-serif" font-size="14" lengthAdjust="spacing" text-decoration="underline" textLength="423" x="1195.5" y="212.9266">ScanLineInterseccao(yi:double, y1:double, y2:double) : double</text><ellipse cx="1186.5" cy="225.6238" fill="#84BE84" rx="3" ry="3" style="stroke:#038048;stroke-width:1.0;"/><text fill="#000000" font-family="sans-serif" font-size="14" lengthAdjust="spacing" text-decoration="underline" textLength="410" x="1195.5" y="229.4148">ScanLineCalculaXi(x1:double, x2:double, ti:double) : double</text><ellipse cx="1186.5" cy="242.1121" fill="#84BE84" rx="3" ry="3" style="stroke:#038048;stroke-width:1.0;"/><text fill="#000000" font-family="sans-serif" font-size="14" lengthAdjust="spacing" text-decoration="underline" textLength="473" x="1195.5" y="245.9031">ScanLine(ptoClique:Ponto4D, ptoIni:Ponto4D, ptoFim:Ponto4D) : bool</text></g><!--class Shader--><g id="elem_Shader"><rect codeLine="1" fill="#F1F1F1" height="179.9063" id="Shader" rx="2.5" ry="2.5" style="stroke:#181818;stroke-width:0.5;" width="328" x="100" y="378.81"/><ellipse cx="235.75" cy="394.81" fill="#ADD1B2" rx="11" ry="11" style="stroke:#181818;stroke-width:1.0;"/><path d="M238.2231,400.9531 Q237.6421,401.2519 237.0029,401.4013 Q236.3638,401.5507 235.6582,401.5507 Q233.1514,401.5507 231.8315,399.8989 Q230.5117,398.247 230.5117,395.1259 Q230.5117,391.9965 231.8315,390.3447 Q233.1514,388.6928 235.6582,388.6928 Q236.3638,388.6928 237.0112,388.8422 Q237.6587,388.9916 238.2231,389.2905 L238.2231,392.0131 Q237.5923,391.4321 236.9988,391.1623 Q236.4053,390.8925 235.7744,390.8925 Q234.4297,390.8925 233.7449,391.9592 Q233.0601,393.0258 233.0601,395.1259 Q233.0601,397.2177 233.7449,398.2844 Q234.4297,399.351 235.7744,399.351 Q236.4053,399.351 236.9988,399.0812 Q237.5923,398.8115 238.2231,398.2304 Z " fill="#000000"/><text fill="#000000" font-family="sans-serif" font-size="14" lengthAdjust="spacing" textLength="48" x="256.25" y="400.101">Shader</text><line style="stroke:#181818;stroke-width:0.5;" x1="101" x2="427" y1="410.81" y2="410.81"/><ellipse cx="111" cy="424.5541" fill="none" rx="3" ry="3" style="stroke:#038048;stroke-width:1.0;"/><text fill="#000000" font-family="sans-serif" font-size="14" lengthAdjust="spacing" textLength="156" x="120" y="428.3452">&#171;readonly&#187; Handle : int</text><line style="stroke:#181818;stroke-width:0.5;" x1="101" x2="427" y1="435.2983" y2="435.2983"/><ellipse cx="111" cy="449.0424" fill="#84BE84" rx="3" ry="3" style="stroke:#038048;stroke-width:1.0;"/><text fill="#000000" font-family="sans-serif" font-size="14" lengthAdjust="spacing" textLength="268" x="120" y="452.8334">Shader(vertPath:string, fragPath:string)</text><ellipse cx="111" cy="465.5307" fill="#84BE84" rx="3" ry="3" style="stroke:#038048;stroke-width:1.0;"/><text fill="#000000" font-family="sans-serif" font-size="14" lengthAdjust="spacing" textLength="76" x="120" y="469.3217">Use() : void</text><ellipse cx="111" cy="482.019" fill="#84BE84" rx="3" ry="3" style="stroke:#038048;stroke-width:1.0;"/><text fill="#000000" font-family="sans-serif" font-size="14" lengthAdjust="spacing" textLength="280" x="120" y="485.81">GetAttribLocation(attribName:string) : int</text><ellipse cx="111" cy="498.5073" fill="#84BE84" rx="3" ry="3" style="stroke:#038048;stroke-width:1.0;"/><text fill="#000000" font-family="sans-serif" font-size="14" lengthAdjust="spacing" textLength="232" x="120" y="502.2983">SetInt(name:string, data:int) : void</text><ellipse cx="111" cy="514.9955" fill="#84BE84" rx="3" ry="3" style="stroke:#038048;stroke-width:1.0;"/><text fill="#000000" font-family="sans-serif" font-size="14" lengthAdjust="spacing" textLength="261" x="120" y="518.7866">SetFloat(name:string, data:float) : void</text><ellipse cx="111" cy="531.4838" fill="#84BE84" rx="3" ry="3" style="stroke:#038048;stroke-width:1.0;"/><text fill="#000000" font-family="sans-serif" font-size="14" lengthAdjust="spacing" textLength="302" x="120" y="535.2748">SetMatrix4(name:string, data:Matrix4) : void</text><ellipse cx="111" cy="547.9721" fill="#84BE84" rx="3" ry="3" style="stroke:#038048;stroke-width:1.0;"/><text fill="#000000" font-family="sans-serif" font-size="14" lengthAdjust="spacing" textLength="302" x="120" y="551.7631">SetVector3(name:string, data:Vector3) : void</text></g><!--class Texture--><g id="elem_Texture"><rect codeLine="1" fill="#F1F1F1" height="113.9531" id="Texture" rx="2.5" ry="2.5" style="stroke:#181818;stroke-width:0.5;" width="270" x="463" y="411.79"/><ellipse cx="566.75" cy="427.79" fill="#ADD1B2" rx="11" ry="11" style="stroke:#181818;stroke-width:1.0;"/><path d="M569.2231,433.9331 Q568.6421,434.2319 568.0029,434.3813 Q567.3638,434.5307 566.6582,434.5307 Q564.1514,434.5307 562.8315,432.8789 Q561.5117,431.227 561.5117,428.1059 Q561.5117,424.9765 562.8315,423.3247 Q564.1514,421.6728 566.6582,421.6728 Q567.3638,421.6728 568.0112,421.8222 Q568.6587,421.9716 569.2231,422.2705 L569.2231,424.9931 Q568.5923,424.4121 567.9988,424.1423 Q567.4053,423.8725 566.7744,423.8725 Q565.4297,423.8725 564.7449,424.9392 Q564.0601,426.0058 564.0601,428.1059 Q564.0601,430.1977 564.7449,431.2644 Q565.4297,432.331 566.7744,432.331 Q567.4053,432.331 567.9988,432.0612 Q568.5923,431.7915 569.2231,431.2104 Z " fill="#000000"/><text fill="#000000" font-family="sans-serif" font-size="14" lengthAdjust="spacing" textLength="54" x="587.25" y="433.081">Texture</text><line style="stroke:#181818;stroke-width:0.5;" x1="464" x2="732" y1="443.79" y2="443.79"/><ellipse cx="474" cy="457.5341" fill="none" rx="3" ry="3" style="stroke:#038048;stroke-width:1.0;"/><text fill="#000000" font-family="sans-serif" font-size="14" lengthAdjust="spacing" textLength="156" x="483" y="461.3252">&#171;readonly&#187; Handle : int</text><line style="stroke:#181818;stroke-width:0.5;" x1="464" x2="732" y1="468.2783" y2="468.2783"/><ellipse cx="474" cy="482.0224" fill="#84BE84" rx="3" ry="3" style="stroke:#038048;stroke-width:1.0;"/><text fill="#000000" font-family="sans-serif" font-size="14" lengthAdjust="spacing" text-decoration="underline" textLength="244" x="483" y="485.8134">LoadFromFile(path:string) : Texture</text><ellipse cx="474" cy="498.5107" fill="#84BE84" rx="3" ry="3" style="stroke:#038048;stroke-width:1.0;"/><text fill="#000000" font-family="sans-serif" font-size="14" lengthAdjust="spacing" textLength="147" x="483" y="502.3017">Texture(glHandle:int)</text><ellipse cx="474" cy="514.999" fill="#84BE84" rx="3" ry="3" style="stroke:#038048;stroke-width:1.0;"/><text fill="#000000" font-family="sans-serif" font-size="14" lengthAdjust="spacing" textLength="189" x="483" y="518.79">Use(unit:TextureUnit) : void</text></g><!--link Camera to Vector3--><g id="link_Camera_Vector3"><path codeLine="10" d="M1837.05,244.94 C1828.83,311.74 1830.8967,396.5571 1847.7167,438.7171 " fill="none" id="Camera-to-Vector3" style="stroke:#181818;stroke-width:1.0;"/><polygon fill="#181818" points="1849.94,444.29,1850.3202,434.4485,1848.0872,439.6459,1842.8898,437.4129,1849.94,444.29" style="stroke:#181818;stroke-width:1.0;"/><text fill="#000000" font-family="sans-serif" font-size="13" lengthAdjust="spacing" textLength="51" x="1787.3473" y="434.1011">Position</text></g><!--link Camera to Vector3--><g id="link_Camera_Vector3"><path codeLine="11" d="M1860.57,244.94 C1857.89,311.74 1858.5138,396.1804 1864.0138,438.3404 " fill="none" id="Camera-to-Vector3-1" style="stroke:#181818;stroke-width:1.0;"/><polygon fill="#181818" points="1864.79,444.29,1867.5922,434.8482,1864.1432,439.332,1859.6594,435.8831,1864.79,444.29" style="stroke:#181818;stroke-width:1.0;"/><text fill="#000000" font-family="sans-serif" font-size="13" lengthAdjust="spacing" textLength="33" x="1867.0544" y="434.1011">Front</text></g><!--link Camera to Vector3--><g id="link_Camera_Vector3"><path codeLine="12" d="M1884.1,244.94 C1886.94,311.74 1886.2805,396.1864 1880.4605,438.3464 " fill="none" id="Camera-to-Vector3-2" style="stroke:#181818;stroke-width:1.0;"/><polygon fill="#181818" points="1879.64,444.29,1884.8332,435.9215,1880.3237,439.337,1876.9083,434.8276,1879.64,444.29" style="stroke:#181818;stroke-width:1.0;"/><text fill="#000000" font-family="sans-serif" font-size="13" lengthAdjust="spacing" textLength="17" x="1862.4304" y="434.1011">Up</text></g><!--link Camera to Vector3--><g id="link_Camera_Vector3"><path codeLine="13" d="M1907.62,244.94 C1916,311.74 1913.8797,396.5718 1896.7397,438.7318 " fill="none" id="Camera-to-Vector3-3" style="stroke:#181818;stroke-width:1.0;"/><polygon fill="#181818" points="1894.48,444.29,1901.575,437.4591,1896.3631,439.6581,1894.164,434.4462,1894.48,444.29" style="stroke:#181818;stroke-width:1.0;"/><text fill="#000000" font-family="sans-serif" font-size="13" lengthAdjust="spacing" textLength="33" x="1903.9814" y="434.1011">Right</text></g><!--link BBox to Ponto4D--><g id="link_BBox_Ponto4D"><path codeLine="15" d="M2322,286.19 C2322,319.99 2322,349.84 2322,380.67 " fill="none" id="BBox-to-Ponto4D" style="stroke:#181818;stroke-width:1.0;"/><polygon fill="#181818" points="2322,386.67,2326,377.67,2322,381.67,2318,377.67,2322,386.67" style="stroke:#181818;stroke-width:1.0;"/><text fill="#000000" font-family="sans-serif" font-size="13" lengthAdjust="spacing" textLength="77" x="2241.5711" y="376.2723">ObterCentro</text></g><!--SRC=[hO-nRi9038RtFWNiwDA1eGj34b3LWIeIWRNo1KDTtPqZdm_1svC1L5L71GEJ9N-_VtqUK-XSskB853Lu56XGOe-TqW5Ddxnx6VycragE58GuGwr0Y3iM3ntmT9xngk9ZjcmuwAtm4XGzA7MGeTKtR0V3o_mNjtZK9Fa7R7yAGOSGiGYeR-QrC9-BjcR1ikydc-6MECmE0p1bZEYjEvMgGZOfnaVgwlUlYgmZLXpqhnqVOSSth-Teq_vPAd_AxeYS0G00]--></g></svg>